<svg xmlns="http://www.w3.org/2000/svg" width="27.106" height="29.892" viewBox="0 0 27.106 29.892">
  <path id="Icon_simple-email" data-name="Icon simple-email" d="M28.758,13.8a15.416,15.416,0,0,1-.5,3.344,9.676,9.676,0,0,1-1.3,2.936,6.86,6.86,0,0,1-2.2,2.086,6.221,6.221,0,0,1-3.218.794,4.666,4.666,0,0,1-2.327-.57,3.986,3.986,0,0,1-1.573-1.612,4.985,4.985,0,0,1-4.218,2.118,4.289,4.289,0,0,1-3.682-1.98,6.482,6.482,0,0,1-.915-2.294,9.892,9.892,0,0,1-.12-2.992,13.9,13.9,0,0,1,.912-3.665A9.961,9.961,0,0,1,11.3,9.155a7.128,7.128,0,0,1,2.316-1.789,6.463,6.463,0,0,1,2.817-.626,8.759,8.759,0,0,1,1.685.144,6.9,6.9,0,0,1,1.308.392,7.071,7.071,0,0,1,1.083.572c.331.213.663.433.994.658l-.818,9.414a3.129,3.129,0,0,0,.024,1.1,1.542,1.542,0,0,0,.336.68,1.21,1.21,0,0,0,.545.355,2.025,2.025,0,0,0,1.916-.377,4.085,4.085,0,0,0,1.027-1.308,8.421,8.421,0,0,0,.691-1.965,13.483,13.483,0,0,0,.3-2.447,15.638,15.638,0,0,0-.385-4.573,9.089,9.089,0,0,0-1.692-3.538A7.858,7.858,0,0,0,20.418,3.57,11.01,11.01,0,0,0,16,2.761a9.758,9.758,0,0,0-4.371.953A10.029,10.029,0,0,0,8.306,6.355a12.676,12.676,0,0,0-2.174,3.973,17.9,17.9,0,0,0-.915,4.95,16.46,16.46,0,0,0,.467,5.051,9.122,9.122,0,0,0,1.845,3.62,7.7,7.7,0,0,0,3.127,2.174,11.994,11.994,0,0,0,4.315.721,14.779,14.779,0,0,0,2.832-.3c.467-.093.91-.205,1.332-.329a10.024,10.024,0,0,0,1.147-.411l.592,2.664a6.573,6.573,0,0,1-1.283.635,12.352,12.352,0,0,1-1.517.439,14.8,14.8,0,0,1-3.168.355,16.613,16.613,0,0,1-5.776-.93,10.63,10.63,0,0,1-4.21-2.768,11.626,11.626,0,0,1-2.527-4.571,19.5,19.5,0,0,1-.706-6.345A19.351,19.351,0,0,1,2.9,9.188,15.07,15.07,0,0,1,5.826,4.35a13.329,13.329,0,0,1,4.462-3.192A13.971,13.971,0,0,1,16.067,0a14.586,14.586,0,0,1,5.6,1,10.892,10.892,0,0,1,4.042,2.821,11.575,11.575,0,0,1,2.4,4.358A16.663,16.663,0,0,1,28.758,13.8ZM12.716,15.627a6.354,6.354,0,0,0,.329,3.151,1.69,1.69,0,0,0,1.625,1.065,1.8,1.8,0,0,0,.557-.1,1.985,1.985,0,0,0,.641-.385,3.419,3.419,0,0,0,.65-.785,6.021,6.021,0,0,0,.6-1.326l.639-7.315A3.817,3.817,0,0,0,16.76,9.8a3.436,3.436,0,0,0-1.653.379,3.273,3.273,0,0,0-1.171,1.113,6.538,6.538,0,0,0-.777,1.831,15.528,15.528,0,0,0-.441,2.5Z" transform="translate(-1.67)" fill="#f2f2f2"/>
</svg>
