<svg id="Icon_awesome-shopping-cart" data-name="Icon awesome-shopping-cart" xmlns="http://www.w3.org/2000/svg" width="35.278" height="31.58" viewBox="0 0 35.278 31.58">
  <path id="Icon_awesome-shopping-cart-2" data-name="Icon awesome-shopping-cart" d="M32.345,18.585l2.9-12.829a1.478,1.478,0,0,0-1.433-1.808H9.751L9.189,1.184A1.472,1.472,0,0,0,7.749,0H1.47A1.475,1.475,0,0,0,0,1.48v.987a1.475,1.475,0,0,0,1.47,1.48H5.75l4.3,21.183a3.433,3.433,0,1,0,4.106.528H27a3.426,3.426,0,1,0,3.9-.642l.338-1.5A1.478,1.478,0,0,0,29.8,21.711H13.359l-.4-1.974H30.912A1.472,1.472,0,0,0,32.345,18.585Z" fill="#fff"/>
</svg>
