<svg id="Icon_awesome-user-circle" data-name="Icon awesome-user-circle" xmlns="http://www.w3.org/2000/svg" width="31.58" height="31.58" viewBox="0 0 31.58 31.58">
  <path id="Icon_awesome-user-circle-2" data-name="Icon awesome-user-circle" d="M15.79.563a15.79,15.79,0,1,0,15.79,15.79A15.787,15.787,0,0,0,15.79.563Zm0,6.112a5.6,5.6,0,1,1-5.6,5.6A5.6,5.6,0,0,1,15.79,6.675Zm0,21.9a12.2,12.2,0,0,1-9.328-4.342,7.1,7.1,0,0,1,6.271-3.807,1.558,1.558,0,0,1,.452.07,8.43,8.43,0,0,0,2.6.439,8.4,8.4,0,0,0,2.6-.439,1.558,1.558,0,0,1,.452-.07,7.1,7.1,0,0,1,6.271,3.807A12.2,12.2,0,0,1,15.79,28.577Z" transform="translate(0 -0.563)" fill="#fff"/>
</svg>
