<svg xmlns="http://www.w3.org/2000/svg" width="10.755" height="8.839" viewBox="0 0 10.755 8.839">
  <path id="Icon_metro-warning" data-name="Icon metro-warning" d="M7.948,2.729l4.507,7.382H3.441L7.948,2.729Zm0-.8a.788.788,0,0,0-.639.385L2.718,9.833c-.352.514-.053.934.665.934h9.131c.717,0,1.017-.42.665-.934h0L8.588,2.313a.788.788,0,0,0-.639-.385ZM8.621,9.11a.621.621,0,0,1-.672.552.621.621,0,0,1-.672-.552.621.621,0,0,1,.672-.552A.621.621,0,0,1,8.621,9.11ZM7.948,8a.621.621,0,0,1-.672-.552V5.8a.621.621,0,0,1,.672-.552.621.621,0,0,1,.672.552V7.452A.621.621,0,0,1,7.948,8Z" transform="translate(-2.571 -1.928)" fill="#fff"/>
</svg>
